<?xml version="1.0" encoding="utf-8"?>
<!-- Generator: Adobe Illustrator 28.0.0, SVG Export Plug-In . SVG Version: 6.00 Build 0)  -->
<svg version="1.1" id="レイヤー_1" xmlns="http://www.w3.org/2000/svg" xmlns:xlink="http://www.w3.org/1999/xlink" x="0px"
	 y="0px" viewBox="0 0 151.6 161.8" style="enable-background:new 0 0 151.6 161.8;" xml:space="preserve">
<style type="text/css">
	.st0{fill:#666666;}
	.st1{fill:#FFB531;}
	.st2{fill:#232222;}
	.st3{fill:#999999;}
</style>
<path class="st0" d="M59.8,81.2c0,0,14.2-28.7,43.9-28.7c29.7,0,42.9,28.4,44.9,53.2c2,24.8,2.2,56.1,2.2,56.1H138
	c0,0-2.4-6.6,5.1-6.6l-6.6-24.5l-3.2,31.1h-12.3c0,0-3.2-7.1,3.7-7.1c0,0,1-21.3-8.8-34.3c-9.8-13-41.7-15.7-48.5,10
	c-6.9,25.7-7.6,31.4-7.6,31.4H46.1c0,0-1-7.4,5.1-7.4c0,0,0-26.7-1.2-29.2c-1.2-2.5-11.5,7.1-21.3,8.3c-7.8,1-9.6,5.1-12.7,4.7
	c-3.2-0.5-1.7-12,3.7-13.5c5.4-1.5,23.3-3.1,24.8-19.9L59.8,81.2z"/>
<path class="st0" d="M64.2,78.7c-13.3-10.5-31.4-5.3-31.4-5.3S15,78.4,9,94.4c-5.7,15.3,5.8,30.3,36,21.7
	C75.2,107.5,77,88.7,64.2,78.7z"/>
<g>
	<path class="st1" d="M49.1,94c0,0,0-0.1,0.1-0.3c0.1-0.2,0.2-0.4,0.3-0.7c0.2-0.3,0.3-0.6,0.6-1c0.2-0.3,0.5-0.7,0.8-1.1
		c0.6-0.7,1.3-1.4,2.1-1.9c0.8-0.6,1.8-1,2.7-1.3c1-0.3,2-0.4,3-0.4c1,0,2,0.2,2.8,0.5c0.4,0.1,0.8,0.3,1.2,0.5
		c0.4,0.2,0.7,0.4,1,0.5c0.3,0.1,0.5,0.3,0.7,0.4c0.2,0.1,0.2,0.2,0.2,0.2s0,0.1-0.1,0.3c-0.1,0.2-0.2,0.4-0.3,0.7
		c-0.1,0.3-0.3,0.6-0.6,1c-0.2,0.3-0.5,0.7-0.8,1.1c-0.6,0.7-1.3,1.4-2.1,1.9c-0.8,0.6-1.8,1-2.7,1.3c-1,0.3-2,0.4-3,0.4
		c-1,0-2-0.2-2.8-0.5c-0.4-0.1-0.8-0.3-1.2-0.5c-0.4-0.2-0.7-0.4-1-0.5c-0.3-0.1-0.5-0.3-0.7-0.4C49.2,94,49.1,94,49.1,94z"/>
	<path class="st2" d="M55.8,87.7c0,0,0,0,0.1,0.1c0.1,0,0.2,0.1,0.3,0.2c0.2,0.2,0.6,0.4,0.9,0.7c0.6,0.6,1.2,1.6,1.5,2.5
		c0.3,1,0.3,2.1,0.1,2.9c-0.1,0.4-0.2,0.8-0.3,1.1c0,0.1-0.1,0.2-0.2,0.3c0,0.1-0.1,0.1-0.1,0.1s0,0-0.1-0.1c-0.1,0-0.2-0.1-0.3-0.2
		c-0.2-0.2-0.6-0.4-0.9-0.7c-0.6-0.6-1.2-1.6-1.5-2.5c-0.3-1-0.3-2.1-0.1-2.9c0.1-0.4,0.2-0.8,0.3-1.1c0-0.1,0.1-0.2,0.2-0.3
		C55.7,87.8,55.8,87.7,55.8,87.7z"/>
</g>
<g>
	<path class="st1" d="M14.3,103.9c0,0,0-0.1,0.1-0.3c0.1-0.2,0.2-0.4,0.3-0.7c0.2-0.3,0.3-0.6,0.6-1c0.2-0.3,0.5-0.7,0.8-1.1
		c0.6-0.7,1.3-1.4,2.1-1.9c0.8-0.6,1.8-1,2.7-1.3c1-0.3,2-0.4,3-0.4c1,0,2,0.2,2.8,0.5c0.4,0.1,0.8,0.3,1.2,0.5
		c0.4,0.2,0.7,0.4,1,0.5c0.3,0.1,0.5,0.3,0.7,0.4c0.2,0.1,0.2,0.2,0.2,0.2s0,0.1-0.1,0.3c-0.1,0.2-0.2,0.4-0.3,0.7
		c-0.2,0.3-0.3,0.6-0.6,1c-0.2,0.3-0.5,0.7-0.8,1.1c-0.6,0.7-1.3,1.4-2.1,1.9c-0.8,0.6-1.8,1-2.7,1.3c-1,0.3-2,0.4-3,0.4
		c-1,0-2-0.2-2.8-0.5c-0.4-0.1-0.8-0.3-1.2-0.5c-0.4-0.2-0.7-0.4-1-0.5c-0.3-0.1-0.5-0.3-0.7-0.4C14.3,104,14.3,103.9,14.3,103.9z"
		/>
	<path class="st2" d="M20.9,97.7c0,0,0,0,0.1,0.1c0.1,0,0.2,0.1,0.3,0.2c0.2,0.2,0.6,0.4,0.9,0.7c0.6,0.6,1.2,1.6,1.5,2.5
		c0.3,1,0.3,2.1,0.1,2.9c-0.1,0.4-0.2,0.8-0.3,1.1c0,0.1-0.1,0.2-0.2,0.3c0,0.1-0.1,0.1-0.1,0.1s0,0-0.1-0.1c-0.1,0-0.2-0.1-0.3-0.2
		c-0.2-0.2-0.6-0.4-0.9-0.7c-0.6-0.6-1.2-1.6-1.5-2.5c-0.3-1-0.3-2.1-0.1-2.9c0.1-0.4,0.2-0.8,0.3-1.1c0-0.1,0.1-0.2,0.2-0.3
		C20.9,97.7,20.9,97.7,20.9,97.7z"/>
</g>
<path class="st3" d="M42.6,100.7c-1,0.3-2.7,0.8-3.7,1c-1,0.3-1,1.1,0.1,1.8l1,0.7c1.1,0.7,2.4,0.3,2.9-0.8l0.5-1.1
	C44,101.1,43.6,100.4,42.6,100.7z"/>
<path class="st0" d="M63.2,77.9L63.2,77.9L60,53.8L45.2,72.1C50.8,72.4,57.4,73.7,63.2,77.9z"/>
<path class="st2" d="M59.1,74L59.1,74l-1.7-12.7L49.6,71C52.6,71.1,56,71.8,59.1,74z"/>
<path class="st0" d="M10,93.1L10,93.1L0,70.9l22.2,7.8C17.6,81.8,12.8,86.5,10,93.1z"/>
<path class="st2" d="M11.5,87.6L11.5,87.6L6.2,76L17.9,80C15.5,81.7,12.9,84.1,11.5,87.6z"/>
<g>
	<g>
		<g>
			<path class="st2" d="M52.9,101.8c6.1-0.2,12.2-0.4,18.3-0.6c0.6,0,0.6-1,0-1c-6.1,0.2-12.2,0.4-18.3,0.7
				C52.3,100.9,52.3,101.8,52.9,101.8L52.9,101.8z"/>
		</g>
		<g>
			<path class="st2" d="M50.5,105.2c5.9,1.6,11.9,3.2,17.8,4.9c0.6,0.2,0.8-0.8,0.3-0.9c-5.9-1.6-11.9-3.2-17.8-4.9
				C50.1,104.1,49.9,105.1,50.5,105.2L50.5,105.2z"/>
		</g>
	</g>
	<g>
		<g>
			<path class="st2" d="M29.9,108.4c-5.3,3-10.6,6.1-15.9,9.1c-0.5,0.3-1-0.5-0.5-0.8c5.3-3,10.6-6.1,15.9-9.1
				C30,107.2,30.5,108.1,29.9,108.4L29.9,108.4z"/>
		</g>
		<g>
			<path class="st2" d="M33.8,110c-4.2,4.5-8.4,9-12.5,13.5c-0.4,0.4-1.1-0.2-0.7-0.6c4.2-4.5,8.4-9,12.5-13.5
				C33.5,108.9,34.2,109.5,33.8,110L33.8,110z"/>
		</g>
	</g>
</g>
<g>
	<path class="st0" d="M117,89.3c17.3-11.7,34-30.9,34.6-52.7C152,23,145.4,7.9,132.4,2c-11.3-5.2-26.3-0.2-31.9,10.9
		c-3.4,6.7-2.4,15,1.8,21.1c4.4,6.5,11.8,9.2,19.4,7.9c7.3-1.3,13-7.1,13.8-14.5c0.7-6.6-4-11.7-10.4-12.2c-2.1-0.2-2.1,3.1,0,3.3
		c5.1,0.4,7.8,4.7,7,9.6c-0.9,5.8-5.8,9.5-11.3,10.7c-12.3,2.6-21.3-10.3-18.4-21.5c1.7-6.8,8-11.3,14.5-13.3
		c6.8-2.1,14.1-0.2,19.6,4.2c12.5,10,14.3,28.7,9,42.8c-5.4,14.2-17.6,26.9-30,35.3C113.6,87.6,115.2,90.5,117,89.3L117,89.3z"/>
</g>
</svg>
