<svg id="レイヤー_1" data-name="レイヤー 1" xmlns="http://www.w3.org/2000/svg" viewBox="0 0 16 16"><defs><style>.cls-1{fill:#717071;}</style></defs><title>icon_in</title><path class="cls-1" d="M11.31,15.92H4.69a4.6,4.6,0,0,1-4.6-4.6V4.68A4.6,4.6,0,0,1,4.69.08h6.62a4.6,4.6,0,0,1,4.6,4.6v6.64A4.6,4.6,0,0,1,11.31,15.92ZM4.69,1.53A3.15,3.15,0,0,0,1.54,4.68v6.64a3.15,3.15,0,0,0,3.15,3.15h6.62a3.15,3.15,0,0,0,3.15-3.15V4.68a3.15,3.15,0,0,0-3.15-3.15Z"/><path class="cls-1" d="M8,12.05A4.05,4.05,0,1,1,12.05,8,4.06,4.06,0,0,1,8,12.05ZM8,5.37A2.63,2.63,0,1,0,10.63,8,2.63,2.63,0,0,0,8,5.37Z"/><path class="cls-1" d="M13.22,3.79a1,1,0,1,1-1-1A1,1,0,0,1,13.22,3.79Z"/></svg>