<svg id="レイヤー_1" data-name="レイヤー 1" xmlns="http://www.w3.org/2000/svg" viewBox="0 0 16 16"><defs><style>.cls-1{fill:#717071;}</style></defs><title>icon_tw</title><path class="cls-1" d="M14.08,4.88a8.88,8.88,0,0,1-8.92,9.34A8.89,8.89,0,0,1,.35,12.81,6.37,6.37,0,0,0,5,11.51,3.16,3.16,0,0,1,2.06,9.33a3.21,3.21,0,0,0,1.42-.06A3.14,3.14,0,0,1,1,6.16a3.27,3.27,0,0,0,1.42.39,3.15,3.15,0,0,1-1-4.19A8.91,8.91,0,0,0,7.88,5.64a3.15,3.15,0,0,1,3.06-3.86,3.12,3.12,0,0,1,2.29,1,6.28,6.28,0,0,0,2-.76,3.15,3.15,0,0,1-1.38,1.74,6.39,6.39,0,0,0,1.8-.49A6.36,6.36,0,0,1,14.08,4.88Z"/></svg>